# xmcd
#
# Track frame offsets:
#	150
#	17413
#	31389
#	57762
#	83560
#	108764
#	124376
#	143733
#	158335
#	177270
#
# Disc length: 2857 seconds
#
# Revision: 0
# Processed by: cddbd v1.5.1PL0 Copyright (c) Steve Scherf et al.
# Submitted via: audiograbber 1.83.01
#
DISCID=6d0b270a
DTITLE=Various Artist - Juice#22
DYEAR=2002
DGENRE=Hip-Hop
TTITLE0=DJ Jazzy Jeff - For Da Love Of Da Game
TTITLE1=Nature - The Ride
TTITLE2=Fingathering - Superhero Music
TTITLE3=Aphrodite feat. Schooly D. - Hoochie
TTITLE4=Doble V - Vicious Y Virtudes
TTITLE5=Massive Töne - Deutschrap
TTITLE6=Sieben - Und Was Wenn (Splash! Masterblaster)
TTITLE7=B-Tight - Märkisches Viertel
TTITLE8=Vegas, Simon feat. J.M.O. - J.M.O.
TTITLE9=LL Cool J - I Can´t Live Without My Radio
EXTD=
EXTT0=
EXTT1=
EXTT2=
EXTT3=
EXTT4=
EXTT5=
EXTT6=
EXTT7=
EXTT8=
EXTT9=
PLAYORDER=
